<svg xmlns="http://www.w3.org/2000/svg" xmlns:xlink="http://www.w3.org/1999/xlink" zoomAndPan="magnify" preserveAspectRatio="xMidYMid meet" version="1.0" viewBox="67.92 146.46 246.06 77.09"><defs><g/><clipPath id="839bba4048"><path d="M 205.328125 146.464844 L 228.59375 146.464844 L 228.59375 169.730469 L 205.328125 169.730469 Z M 205.328125 146.464844 " clip-rule="nonzero"/></clipPath><clipPath id="2655f9ebd8"><path d="M 216.960938 146.464844 C 210.535156 146.464844 205.328125 151.671875 205.328125 158.097656 C 205.328125 164.523438 210.535156 169.730469 216.960938 169.730469 C 223.386719 169.730469 228.59375 164.523438 228.59375 158.097656 C 228.59375 151.671875 223.386719 146.464844 216.960938 146.464844 Z M 216.960938 146.464844 " clip-rule="nonzero"/></clipPath><clipPath id="69b91405dd"><path d="M 209.605469 149.617188 L 224.632812 149.617188 L 224.632812 164.644531 L 209.605469 164.644531 Z M 209.605469 149.617188 " clip-rule="nonzero"/></clipPath></defs><g fill="#c91c53" fill-opacity="1"><g transform="translate(67.393256, 206.282749)"><g><path d="M 50.53125 0 L 47.875 -33.3125 L 47.546875 -33.3125 L 36.03125 -0.34375 L 28.40625 -0.34375 L 16.890625 -33.3125 L 16.546875 -33.3125 L 13.890625 0 L 1.09375 0 L 6.125 -56.1875 L 19.75 -56.1875 L 32.21875 -23.765625 L 44.671875 -56.1875 L 58.296875 -56.1875 L 63.34375 0 Z M 50.53125 0 "/></g></g></g><g fill="#c91c53" fill-opacity="1"><g transform="translate(129.500461, 206.282749)"><g><path d="M 11.84375 -14.578125 C 14.03125 -14.578125 15.882812 -13.816406 17.40625 -12.296875 C 18.925781 -10.773438 19.6875 -8.925781 19.6875 -6.75 C 19.6875 -4.613281 18.925781 -2.785156 17.40625 -1.265625 C 15.882812 0.253906 14.03125 1.015625 11.84375 1.015625 C 9.71875 1.015625 7.894531 0.253906 6.375 -1.265625 C 4.851562 -2.785156 4.09375 -4.613281 4.09375 -6.75 C 4.09375 -8.925781 4.851562 -10.773438 6.375 -12.296875 C 7.894531 -13.816406 9.71875 -14.578125 11.84375 -14.578125 Z M 11.84375 -14.578125 "/></g></g></g><g fill="#c91c53" fill-opacity="1"><g transform="translate(150.951676, 206.282749)"><g><path d="M 4.09375 -56.1875 L 20.359375 -56.1875 C 28.171875 -56.1875 34.847656 -53.519531 40.390625 -48.1875 C 45.929688 -42.851562 48.703125 -36.164062 48.703125 -28.125 C 48.703125 -20.039062 45.941406 -13.332031 40.421875 -8 C 34.898438 -2.664062 28.210938 0 20.359375 0 L 4.09375 0 Z M 16.890625 -11.4375 L 18.859375 -11.4375 C 23.535156 -11.4375 27.359375 -13.015625 30.328125 -16.171875 C 33.304688 -19.328125 34.820312 -23.289062 34.875 -28.0625 C 34.875 -32.832031 33.382812 -36.804688 30.40625 -39.984375 C 27.4375 -43.160156 23.585938 -44.75 18.859375 -44.75 L 16.890625 -44.75 Z M 16.890625 -11.4375 "/></g></g></g><g fill="#c91c53" fill-opacity="1"><g transform="translate(198.893975, 206.282749)"><g><path d="M 1.5625 -28.125 C 1.5625 -36.257812 4.332031 -43.140625 9.875 -48.765625 C 15.414062 -54.398438 22.09375 -57.21875 29.90625 -57.21875 C 37.757812 -57.21875 44.429688 -54.410156 49.921875 -48.796875 C 55.421875 -43.191406 58.171875 -36.300781 58.171875 -28.125 C 58.171875 -19.90625 55.46875 -12.992188 50.0625 -7.390625 C 44.65625 -1.785156 37.9375 1.015625 29.90625 1.015625 C 21.6875 1.015625 14.90625 -1.765625 9.5625 -7.328125 C 4.226562 -12.890625 1.5625 -19.820312 1.5625 -28.125 Z M 15.390625 -28.125 C 15.390625 -25.175781 15.84375 -22.488281 16.75 -20.0625 C 17.65625 -17.632812 19.242188 -15.578125 21.515625 -13.890625 C 23.785156 -12.210938 26.582031 -11.375 29.90625 -11.375 C 34.664062 -11.375 38.257812 -13.007812 40.6875 -16.28125 C 43.125 -19.550781 44.34375 -23.5 44.34375 -28.125 C 44.34375 -32.71875 43.101562 -36.660156 40.625 -39.953125 C 38.15625 -43.242188 34.582031 -44.890625 29.90625 -44.890625 C 25.269531 -44.890625 21.691406 -43.242188 19.171875 -39.953125 C 16.648438 -36.660156 15.390625 -32.71875 15.390625 -28.125 Z M 15.390625 -28.125 "/></g></g></g><g fill="#c91c53" fill-opacity="1"><g transform="translate(256.30224, 206.282749)"><g><path d="M 33.984375 -11.578125 C 35.941406 -11.578125 37.835938 -11.867188 39.671875 -12.453125 C 41.515625 -13.046875 42.863281 -13.617188 43.71875 -14.171875 L 45.015625 -15.046875 L 50.46875 -4.15625 C 50.289062 -4.019531 50.039062 -3.835938 49.71875 -3.609375 C 49.40625 -3.378906 48.664062 -2.957031 47.5 -2.34375 C 46.34375 -1.738281 45.101562 -1.207031 43.78125 -0.75 C 42.46875 -0.289062 40.742188 0.113281 38.609375 0.46875 C 36.484375 0.832031 34.285156 1.015625 32.015625 1.015625 C 26.785156 1.015625 21.832031 -0.265625 17.15625 -2.828125 C 12.476562 -5.390625 8.707031 -8.914062 5.84375 -13.40625 C 2.988281 -17.90625 1.5625 -22.769531 1.5625 -28 C 1.5625 -31.945312 2.398438 -35.734375 4.078125 -39.359375 C 5.765625 -42.992188 8.003906 -46.101562 10.796875 -48.6875 C 13.585938 -51.28125 16.84375 -53.347656 20.5625 -54.890625 C 24.289062 -56.441406 28.109375 -57.21875 32.015625 -57.21875 C 35.640625 -57.21875 38.984375 -56.785156 42.046875 -55.921875 C 45.117188 -55.054688 47.289062 -54.191406 48.5625 -53.328125 L 50.46875 -52.03125 L 45.015625 -41.140625 C 44.703125 -41.410156 44.226562 -41.738281 43.59375 -42.125 C 42.957031 -42.507812 41.6875 -43.019531 39.78125 -43.65625 C 37.875 -44.289062 35.941406 -44.609375 33.984375 -44.609375 C 30.898438 -44.609375 28.128906 -44.109375 25.671875 -43.109375 C 23.222656 -42.109375 21.28125 -40.789062 19.84375 -39.15625 C 18.414062 -37.519531 17.328125 -35.757812 16.578125 -33.875 C 15.828125 -32 15.453125 -30.082031 15.453125 -28.125 C 15.453125 -23.863281 17.050781 -20.039062 20.25 -16.65625 C 23.457031 -13.269531 28.035156 -11.578125 33.984375 -11.578125 Z M 33.984375 -11.578125 "/></g></g></g><g clip-path="url(#839bba4048)"><g clip-path="url(#2655f9ebd8)"><path fill="#ffffff" d="M 205.328125 146.464844 L 228.59375 146.464844 L 228.59375 169.730469 L 205.328125 169.730469 Z M 205.328125 146.464844 " fill-opacity="1" fill-rule="nonzero"/></g></g><g clip-path="url(#69b91405dd)"><path fill="#c91c53" d="M 224.304688 156.96875 C 224.304688 161.042969 221.03125 164.316406 216.957031 164.316406 C 212.878906 164.316406 209.605469 161.042969 209.605469 156.96875 C 209.605469 152.890625 212.878906 149.617188 216.957031 149.617188 C 221.03125 149.617188 224.304688 152.890625 224.304688 156.96875 Z M 221.632812 155.265625 L 218.660156 155.265625 L 218.660156 152.289062 L 215.21875 152.289062 L 215.21875 155.265625 L 212.246094 155.265625 L 212.246094 158.707031 L 215.21875 158.707031 L 215.21875 161.644531 L 218.660156 161.644531 L 218.660156 158.671875 L 221.632812 158.671875 Z M 221.632812 155.265625 " fill-opacity="1" fill-rule="nonzero"/></g><g fill="#c91c53" fill-opacity="1"><g transform="translate(66.467638, 223.480488)"><g><path d="M 10.75 -8.953125 L 10.75 0 L 9.84375 0 L 9.84375 -7.15625 L 6.328125 -1.140625 L 5.875 -1.140625 L 2.359375 -7.125 L 2.359375 0 L 1.453125 0 L 1.453125 -8.953125 L 2.234375 -8.953125 L 6.125 -2.3125 L 9.96875 -8.953125 Z M 10.75 -8.953125 "/></g></g></g><g fill="#c91c53" fill-opacity="1"><g transform="translate(81.232444, 223.480488)"><g><path d="M 7.0625 -2.390625 L 2.078125 -2.390625 L 1.015625 0 L 0.03125 0 L 4.109375 -8.953125 L 5.046875 -8.953125 L 9.140625 0 L 8.140625 0 Z M 6.71875 -3.15625 L 4.578125 -7.96875 L 2.421875 -3.15625 Z M 6.71875 -3.15625 "/></g></g></g><g fill="#c91c53" fill-opacity="1"><g transform="translate(92.958057, 223.480488)"><g><path d="M 7.5625 0 L 5.515625 -2.875 C 5.285156 -2.851562 5.050781 -2.84375 4.8125 -2.84375 L 2.40625 -2.84375 L 2.40625 0 L 1.453125 0 L 1.453125 -8.953125 L 4.8125 -8.953125 C 5.945312 -8.953125 6.835938 -8.675781 7.484375 -8.125 C 8.140625 -7.582031 8.46875 -6.832031 8.46875 -5.875 C 8.46875 -5.175781 8.289062 -4.585938 7.9375 -4.109375 C 7.582031 -3.628906 7.078125 -3.28125 6.421875 -3.0625 L 8.609375 0 Z M 4.78125 -3.640625 C 5.664062 -3.640625 6.34375 -3.832031 6.8125 -4.21875 C 7.28125 -4.613281 7.515625 -5.164062 7.515625 -5.875 C 7.515625 -6.601562 7.28125 -7.160156 6.8125 -7.546875 C 6.34375 -7.929688 5.664062 -8.125 4.78125 -8.125 L 2.40625 -8.125 L 2.40625 -3.640625 Z M 4.78125 -3.640625 "/></g></g></g><g fill="#c91c53" fill-opacity="1"><g transform="translate(104.760286, 223.480488)"><g><path d="M 5.375 0.078125 C 4.476562 0.078125 3.671875 -0.117188 2.953125 -0.515625 C 2.234375 -0.910156 1.671875 -1.453125 1.265625 -2.140625 C 0.867188 -2.835938 0.671875 -3.613281 0.671875 -4.46875 C 0.671875 -5.332031 0.867188 -6.109375 1.265625 -6.796875 C 1.671875 -7.484375 2.234375 -8.023438 2.953125 -8.421875 C 3.671875 -8.828125 4.476562 -9.03125 5.375 -9.03125 C 6.257812 -9.03125 7.054688 -8.832031 7.765625 -8.4375 C 8.472656 -8.039062 9.03125 -7.492188 9.4375 -6.796875 C 9.851562 -6.109375 10.0625 -5.332031 10.0625 -4.46875 C 10.0625 -3.613281 9.851562 -2.835938 9.4375 -2.140625 C 9.03125 -1.441406 8.472656 -0.894531 7.765625 -0.5 C 7.054688 -0.113281 6.257812 0.078125 5.375 0.078125 Z M 5.375 -0.765625 C 6.070312 -0.765625 6.707031 -0.921875 7.28125 -1.234375 C 7.851562 -1.554688 8.300781 -2 8.625 -2.5625 C 8.945312 -3.132812 9.109375 -3.769531 9.109375 -4.46875 C 9.109375 -5.164062 8.945312 -5.796875 8.625 -6.359375 C 8.300781 -6.929688 7.851562 -7.378906 7.28125 -7.703125 C 6.707031 -8.023438 6.070312 -8.1875 5.375 -8.1875 C 4.664062 -8.1875 4.019531 -8.023438 3.4375 -7.703125 C 2.863281 -7.378906 2.410156 -6.929688 2.078125 -6.359375 C 1.753906 -5.796875 1.59375 -5.164062 1.59375 -4.46875 C 1.59375 -3.769531 1.753906 -3.132812 2.078125 -2.5625 C 2.410156 -2 2.863281 -1.554688 3.4375 -1.234375 C 4.019531 -0.921875 4.664062 -0.765625 5.375 -0.765625 Z M 5.375 -0.765625 "/></g></g></g><g fill="#c91c53" fill-opacity="1"><g transform="translate(118.043803, 223.480488)"><g/></g></g><g fill="#c91c53" fill-opacity="1"><g transform="translate(123.959182, 223.480488)"><g><path d="M 3.921875 0.078125 C 3.253906 0.078125 2.613281 -0.0234375 2 -0.234375 C 1.394531 -0.453125 0.925781 -0.738281 0.59375 -1.09375 L 0.96875 -1.8125 C 1.289062 -1.488281 1.71875 -1.226562 2.25 -1.03125 C 2.789062 -0.832031 3.347656 -0.734375 3.921875 -0.734375 C 4.722656 -0.734375 5.320312 -0.878906 5.71875 -1.171875 C 6.125 -1.460938 6.328125 -1.84375 6.328125 -2.3125 C 6.328125 -2.664062 6.21875 -2.945312 6 -3.15625 C 5.78125 -3.375 5.515625 -3.539062 5.203125 -3.65625 C 4.890625 -3.769531 4.453125 -3.894531 3.890625 -4.03125 C 3.210938 -4.207031 2.671875 -4.375 2.265625 -4.53125 C 1.867188 -4.6875 1.523438 -4.925781 1.234375 -5.25 C 0.953125 -5.570312 0.8125 -6.007812 0.8125 -6.5625 C 0.8125 -7.019531 0.929688 -7.429688 1.171875 -7.796875 C 1.410156 -8.171875 1.773438 -8.46875 2.265625 -8.6875 C 2.765625 -8.914062 3.378906 -9.03125 4.109375 -9.03125 C 4.617188 -9.03125 5.117188 -8.957031 5.609375 -8.8125 C 6.109375 -8.675781 6.535156 -8.484375 6.890625 -8.234375 L 6.5625 -7.484375 C 6.1875 -7.722656 5.785156 -7.90625 5.359375 -8.03125 C 4.941406 -8.15625 4.523438 -8.21875 4.109375 -8.21875 C 3.328125 -8.21875 2.738281 -8.066406 2.34375 -7.765625 C 1.945312 -7.460938 1.75 -7.070312 1.75 -6.59375 C 1.75 -6.238281 1.859375 -5.953125 2.078125 -5.734375 C 2.296875 -5.515625 2.566406 -5.347656 2.890625 -5.234375 C 3.222656 -5.117188 3.664062 -4.992188 4.21875 -4.859375 C 4.875 -4.691406 5.40625 -4.53125 5.8125 -4.375 C 6.21875 -4.21875 6.5625 -3.976562 6.84375 -3.65625 C 7.125 -3.34375 7.265625 -2.910156 7.265625 -2.359375 C 7.265625 -1.910156 7.140625 -1.5 6.890625 -1.125 C 6.648438 -0.757812 6.273438 -0.46875 5.765625 -0.25 C 5.265625 -0.03125 4.648438 0.078125 3.921875 0.078125 Z M 3.921875 0.078125 "/></g></g></g><g fill="#c91c53" fill-opacity="1"><g transform="translate(134.382284, 223.480488)"><g><path d="M 4.53125 -3.09375 L 4.53125 0 L 3.59375 0 L 3.59375 -3.09375 L 0.015625 -8.953125 L 1.015625 -8.953125 L 4.09375 -3.921875 L 7.15625 -8.953125 L 8.109375 -8.953125 Z M 4.53125 -3.09375 "/></g></g></g><g fill="#c91c53" fill-opacity="1"><g transform="translate(145.060781, 223.480488)"><g><path d="M 3.921875 0.078125 C 3.253906 0.078125 2.613281 -0.0234375 2 -0.234375 C 1.394531 -0.453125 0.925781 -0.738281 0.59375 -1.09375 L 0.96875 -1.8125 C 1.289062 -1.488281 1.71875 -1.226562 2.25 -1.03125 C 2.789062 -0.832031 3.347656 -0.734375 3.921875 -0.734375 C 4.722656 -0.734375 5.320312 -0.878906 5.71875 -1.171875 C 6.125 -1.460938 6.328125 -1.84375 6.328125 -2.3125 C 6.328125 -2.664062 6.21875 -2.945312 6 -3.15625 C 5.78125 -3.375 5.515625 -3.539062 5.203125 -3.65625 C 4.890625 -3.769531 4.453125 -3.894531 3.890625 -4.03125 C 3.210938 -4.207031 2.671875 -4.375 2.265625 -4.53125 C 1.867188 -4.6875 1.523438 -4.925781 1.234375 -5.25 C 0.953125 -5.570312 0.8125 -6.007812 0.8125 -6.5625 C 0.8125 -7.019531 0.929688 -7.429688 1.171875 -7.796875 C 1.410156 -8.171875 1.773438 -8.46875 2.265625 -8.6875 C 2.765625 -8.914062 3.378906 -9.03125 4.109375 -9.03125 C 4.617188 -9.03125 5.117188 -8.957031 5.609375 -8.8125 C 6.109375 -8.675781 6.535156 -8.484375 6.890625 -8.234375 L 6.5625 -7.484375 C 6.1875 -7.722656 5.785156 -7.90625 5.359375 -8.03125 C 4.941406 -8.15625 4.523438 -8.21875 4.109375 -8.21875 C 3.328125 -8.21875 2.738281 -8.066406 2.34375 -7.765625 C 1.945312 -7.460938 1.75 -7.070312 1.75 -6.59375 C 1.75 -6.238281 1.859375 -5.953125 2.078125 -5.734375 C 2.296875 -5.515625 2.566406 -5.347656 2.890625 -5.234375 C 3.222656 -5.117188 3.664062 -4.992188 4.21875 -4.859375 C 4.875 -4.691406 5.40625 -4.53125 5.8125 -4.375 C 6.21875 -4.21875 6.5625 -3.976562 6.84375 -3.65625 C 7.125 -3.34375 7.265625 -2.910156 7.265625 -2.359375 C 7.265625 -1.910156 7.140625 -1.5 6.890625 -1.125 C 6.648438 -0.757812 6.273438 -0.46875 5.765625 -0.25 C 5.265625 -0.03125 4.648438 0.078125 3.921875 0.078125 Z M 3.921875 0.078125 "/></g></g></g><g fill="#c91c53" fill-opacity="1"><g transform="translate(155.483883, 223.480488)"><g><path d="M 3.1875 -8.125 L 0.046875 -8.125 L 0.046875 -8.953125 L 7.28125 -8.953125 L 7.28125 -8.125 L 4.140625 -8.125 L 4.140625 0 L 3.1875 0 Z M 3.1875 -8.125 "/></g></g></g><g fill="#c91c53" fill-opacity="1"><g transform="translate(165.383419, 223.480488)"><g><path d="M 7.78125 -0.8125 L 7.78125 0 L 1.453125 0 L 1.453125 -8.953125 L 7.59375 -8.953125 L 7.59375 -8.125 L 2.40625 -8.125 L 2.40625 -4.953125 L 7.03125 -4.953125 L 7.03125 -4.140625 L 2.40625 -4.140625 L 2.40625 -0.8125 Z M 7.78125 -0.8125 "/></g></g></g><g fill="#c91c53" fill-opacity="1"><g transform="translate(176.496086, 223.480488)"><g><path d="M 10.75 -8.953125 L 10.75 0 L 9.84375 0 L 9.84375 -7.15625 L 6.328125 -1.140625 L 5.875 -1.140625 L 2.359375 -7.125 L 2.359375 0 L 1.453125 0 L 1.453125 -8.953125 L 2.234375 -8.953125 L 6.125 -2.3125 L 9.96875 -8.953125 Z M 10.75 -8.953125 "/></g></g></g><g fill="#c91c53" fill-opacity="1"><g transform="translate(191.260895, 223.480488)"><g><path d="M 3.921875 0.078125 C 3.253906 0.078125 2.613281 -0.0234375 2 -0.234375 C 1.394531 -0.453125 0.925781 -0.738281 0.59375 -1.09375 L 0.96875 -1.8125 C 1.289062 -1.488281 1.71875 -1.226562 2.25 -1.03125 C 2.789062 -0.832031 3.347656 -0.734375 3.921875 -0.734375 C 4.722656 -0.734375 5.320312 -0.878906 5.71875 -1.171875 C 6.125 -1.460938 6.328125 -1.84375 6.328125 -2.3125 C 6.328125 -2.664062 6.21875 -2.945312 6 -3.15625 C 5.78125 -3.375 5.515625 -3.539062 5.203125 -3.65625 C 4.890625 -3.769531 4.453125 -3.894531 3.890625 -4.03125 C 3.210938 -4.207031 2.671875 -4.375 2.265625 -4.53125 C 1.867188 -4.6875 1.523438 -4.925781 1.234375 -5.25 C 0.953125 -5.570312 0.8125 -6.007812 0.8125 -6.5625 C 0.8125 -7.019531 0.929688 -7.429688 1.171875 -7.796875 C 1.410156 -8.171875 1.773438 -8.46875 2.265625 -8.6875 C 2.765625 -8.914062 3.378906 -9.03125 4.109375 -9.03125 C 4.617188 -9.03125 5.117188 -8.957031 5.609375 -8.8125 C 6.109375 -8.675781 6.535156 -8.484375 6.890625 -8.234375 L 6.5625 -7.484375 C 6.1875 -7.722656 5.785156 -7.90625 5.359375 -8.03125 C 4.941406 -8.15625 4.523438 -8.21875 4.109375 -8.21875 C 3.328125 -8.21875 2.738281 -8.066406 2.34375 -7.765625 C 1.945312 -7.460938 1.75 -7.070312 1.75 -6.59375 C 1.75 -6.238281 1.859375 -5.953125 2.078125 -5.734375 C 2.296875 -5.515625 2.566406 -5.347656 2.890625 -5.234375 C 3.222656 -5.117188 3.664062 -4.992188 4.21875 -4.859375 C 4.875 -4.691406 5.40625 -4.53125 5.8125 -4.375 C 6.21875 -4.21875 6.5625 -3.976562 6.84375 -3.65625 C 7.125 -3.34375 7.265625 -2.910156 7.265625 -2.359375 C 7.265625 -1.910156 7.140625 -1.5 6.890625 -1.125 C 6.648438 -0.757812 6.273438 -0.46875 5.765625 -0.25 C 5.265625 -0.03125 4.648438 0.078125 3.921875 0.078125 Z M 3.921875 0.078125 "/></g></g></g><path stroke-linecap="butt" transform="matrix(0.834765, -0.00644303, 0.00644303, 0.834765, 205.326773, 219.306533)" fill="none" stroke-linejoin="miter" d="M -0.0022283 0.498475 L 129.56267 0.50178 " stroke="#c91c53" stroke-width="1" stroke-opacity="1" stroke-miterlimit="4"/></svg>